<svg width="16" height="19" viewBox="0 0 16 19" fill="none" xmlns="http://www.w3.org/2000/svg">
<path d="M6.82485 10.8415V17.423H0C0 15.6775 0.719044 14.0034 1.99895 12.7692C3.27886 11.5349 5.01479 10.8415 6.82485 10.8415ZM11.9435 17.0117L9.4362 18.2827L9.9148 15.5909L7.88696 13.6839L10.6903 13.2906L11.9435 10.8415L13.1975 13.2906L16 13.6839L13.9722 15.5909L14.4499 18.2827L11.9435 17.0117ZM6.82485 10.0188C3.9968 10.0188 1.70621 7.80985 1.70621 5.08263C1.70621 2.35541 3.9968 0.146484 6.82485 0.146484C9.65289 0.146484 11.9435 2.35541 11.9435 5.08263C11.9435 7.80985 9.65289 10.0188 6.82485 10.0188Z" fill="#A285D0"/>
</svg>
